<svg xmlns="http://www.w3.org/2000/svg" viewBox="0 0 80 50" fill="none">
  <defs>
    <linearGradient id="g1" x1="0%" y1="0%" x2="100%" y2="100%">
      <stop offset="0%" style="stop-color:#00e664;stop-opacity:1" />
      <stop offset="100%" style="stop-color:#00c853;stop-opacity:1" />
    </linearGradient>
    <filter id="glow">
      <feGaussianBlur stdDeviation="1.5" result="blur"/>
      <feMerge><feMergeNode in="blur"/><feMergeNode in="SourceGraphic"/></feMerge>
    </filter>
  </defs>
  <!-- Left loop -->
  <path d="M 14 25 C 14 14, 26 8, 32 16 C 36 21, 38 25, 40 25 C 38 25, 36 29, 32 34 C 26 42, 14 38, 14 25 Z"
        stroke="url(#g1)" stroke-width="3.5" stroke-linecap="round" stroke-linejoin="round" fill="none" filter="url(#glow)"/>
  <!-- Right loop -->
  <path d="M 66 25 C 66 14, 54 8, 48 16 C 44 21, 42 25, 40 25 C 42 25, 44 29, 48 34 C 54 42, 66 38, 66 25 Z"
        stroke="url(#g1)" stroke-width="3.5" stroke-linecap="round" stroke-linejoin="round" fill="none" filter="url(#glow)"/>
  <!-- Center cross lines -->
  <path d="M 32 17 C 35 20, 38 23, 40 25" stroke="#00e664" stroke-width="2" stroke-linecap="round" fill="none" opacity="0.9"/>
  <path d="M 48 17 C 45 20, 42 23, 40 25" stroke="#00e664" stroke-width="2" stroke-linecap="round" fill="none" opacity="0.7"/>
  <path d="M 32 33 C 35 30, 38 27, 40 25" stroke="#00e664" stroke-width="2" stroke-linecap="round" fill="none" opacity="0.7"/>
  <path d="M 48 33 C 45 30, 42 27, 40 25" stroke="#00e664" stroke-width="2" stroke-linecap="round" fill="none" opacity="0.9"/>
  <!-- Arrow tips -->
  <polygon points="19,10 13,14 18,18" fill="#00e664" opacity="1"/>
  <polygon points="61,40 67,36 62,32" fill="#00c853" opacity="1"/>
</svg>
